<svg width="22" height="13" viewBox="0 0 22 13" fill="none" xmlns="http://www.w3.org/2000/svg">
<path d="M9.69922 12.4514C9.86954 12.6253 10.0722 12.7632 10.2954 12.8574C10.5187 12.9515 10.7581 13 11 13C11.2419 13 11.4813 12.9515 11.7046 12.8574C11.9278 12.7632 12.1305 12.6253 12.3008 12.4514L21.4612 3.17881C21.8062 2.8296 22 2.35597 22 1.86211C22 1.36825 21.8062 0.894612 21.4612 0.545399C21.1162 0.196186 20.6483 0 20.1604 0C19.6725 0 19.2046 0.196186 18.8596 0.545399L11 8.51985L3.14036 0.545399C2.79537 0.196186 2.32747 0 1.83958 0C1.35169 0 0.883789 0.196186 0.538801 0.545399C0.193813 0.894612 0 1.36825 0 1.86211C0 2.35597 0.193813 2.8296 0.538801 3.17881L9.69922 12.4514Z" fill="#10E9D8"/>
</svg>
