<svg width="30" height="29" viewBox="0 0 30 29" fill="none" xmlns="http://www.w3.org/2000/svg">
<path d="M2.14286 18.6429C0.964286 18.6429 0 19.575 0 20.7143V26.9286C0 28.0679 0.964286 29 2.14286 29H8.57143C9.75 29 10.7143 28.0679 10.7143 26.9286C10.7143 25.7893 9.75 24.8571 8.57143 24.8571H4.28571V20.7143C4.28571 19.575 3.32143 18.6429 2.14286 18.6429ZM2.14286 10.3571C3.32143 10.3571 4.28571 9.425 4.28571 8.28571V4.14286H8.57143C9.75 4.14286 10.7143 3.21071 10.7143 2.07143C10.7143 0.932143 9.75 0 8.57143 0H2.14286C0.964286 0 0 0.932143 0 2.07143V8.28571C0 9.425 0.964286 10.3571 2.14286 10.3571ZM25.7143 24.8571H21.4286C20.25 24.8571 19.2857 25.7893 19.2857 26.9286C19.2857 28.0679 20.25 29 21.4286 29H27.8571C29.0357 29 30 28.0679 30 26.9286V20.7143C30 19.575 29.0357 18.6429 27.8571 18.6429C26.6786 18.6429 25.7143 19.575 25.7143 20.7143V24.8571ZM19.2857 2.07143C19.2857 3.21071 20.25 4.14286 21.4286 4.14286H25.7143V8.28571C25.7143 9.425 26.6786 10.3571 27.8571 10.3571C29.0357 10.3571 30 9.425 30 8.28571V2.07143C30 0.932143 29.0357 0 27.8571 0H21.4286C20.25 0 19.2857 0.932143 19.2857 2.07143Z" fill="#10E9D8"/>
</svg>
