<svg width="31" height="31" viewBox="0 0 31 31" fill="none" xmlns="http://www.w3.org/2000/svg">
<path d="M22.0807 1H8.02689C4.14605 1 1 4.14605 1 8.02689V22.0807C1 25.9615 4.14605 29.1076 8.02689 29.1076H22.0807C25.9615 29.1076 29.1076 25.9615 29.1076 22.0807V8.02689C29.1076 4.14605 25.9615 1 22.0807 1Z" stroke="#10E9D8" stroke-width="2" stroke-linecap="round" stroke-linejoin="round"/>
<path d="M20.6752 14.1685C20.8486 15.3381 20.6488 16.5326 20.1043 17.5821C19.5597 18.6317 18.698 19.4828 17.6418 20.0144C16.5857 20.546 15.3888 20.731 14.2214 20.5432C13.054 20.3553 11.9756 19.8041 11.1395 18.9681C10.3034 18.132 9.7522 17.0535 9.56435 15.8861C9.3765 14.7187 9.56154 13.5218 10.0931 12.4657C10.6247 11.4095 11.4758 10.5478 12.5254 10.0033C13.5749 9.45867 14.7694 9.25889 15.9391 9.43233C17.1321 9.60925 18.2366 10.1652 19.0895 11.018C19.9423 11.8709 20.4983 12.9754 20.6752 14.1685Z" stroke="#10E9D8" stroke-width="2" stroke-linecap="round" stroke-linejoin="round"/>
<path d="M22.7832 7.3241H22.7979" stroke="#10E9D8" stroke-width="2" stroke-linecap="round" stroke-linejoin="round"/>
</svg>
