<svg width="38" height="38" viewBox="0 0 38 38" fill="none" xmlns="http://www.w3.org/2000/svg">
<circle cx="18.5195" cy="18.5195" r="18.5195" fill="#232D5C"/>
<path d="M12.5454 18.2556C12.5495 17.8066 12.7304 17.3773 13.0489 17.0607L16.7101 13.391C16.87 13.232 17.0863 13.1428 17.3118 13.1428C17.5372 13.1428 17.7535 13.232 17.9134 13.391C17.9934 13.4703 18.0569 13.5647 18.1003 13.6687C18.1436 13.7727 18.1659 13.8843 18.1659 13.9969C18.1659 14.1096 18.1436 14.2211 18.1003 14.3251C18.0569 14.4291 17.9934 14.5235 17.9134 14.6029L15.1057 17.4021H23.64C23.8663 17.4021 24.0834 17.492 24.2434 17.6521C24.4035 17.8121 24.4934 18.0292 24.4934 18.2556C24.4934 18.4819 24.4035 18.699 24.2434 18.859C24.0834 19.0191 23.8663 19.109 23.64 19.109H15.1057L17.9134 21.9168C18.0741 22.0763 18.1649 22.2932 18.1657 22.5197C18.1665 22.7462 18.0773 22.9637 17.9177 23.1244C17.7581 23.2851 17.5413 23.3758 17.3148 23.3766C17.0883 23.3774 16.8708 23.2882 16.7101 23.1286L13.0489 19.4589C12.7283 19.1403 12.5473 18.7075 12.5454 18.2556V18.2556Z" fill="white"/>
</svg>
