<svg width="34" height="32" viewBox="0 0 34 32" fill="none" xmlns="http://www.w3.org/2000/svg">
<path d="M22.8615 10.3696C25.3463 10.3696 27.7294 11.3567 29.4865 13.1138C31.2436 14.8709 32.2307 17.254 32.2307 19.7388V30.6695H25.9845V19.7388C25.9845 18.9105 25.6555 18.1162 25.0698 17.5305C24.4841 16.9448 23.6898 16.6158 22.8615 16.6158C22.0332 16.6158 21.2388 16.9448 20.6531 17.5305C20.0674 18.1162 19.7384 18.9105 19.7384 19.7388V30.6695H13.4923V19.7388C13.4923 17.254 14.4794 14.8709 16.2365 13.1138C17.9935 11.3567 20.3766 10.3696 22.8615 10.3696V10.3696Z" stroke="#10E9D8" stroke-width="2" stroke-linecap="round" stroke-linejoin="round"/>
<path d="M7.24613 11.9306H1V30.669H7.24613V11.9306Z" stroke="#10E9D8" stroke-width="2" stroke-linecap="round" stroke-linejoin="round"/>
<path d="M4.12306 7.24613C5.84788 7.24613 7.24613 5.84788 7.24613 4.12306C7.24613 2.39824 5.84788 1 4.12306 1C2.39824 1 1 2.39824 1 4.12306C1 5.84788 2.39824 7.24613 4.12306 7.24613Z" stroke="#10E9D8" stroke-width="2" stroke-linecap="round" stroke-linejoin="round"/>
</svg>
