<svg width="198" height="30" viewBox="0 0 198 30" fill="none" xmlns="http://www.w3.org/2000/svg">
<path d="M46.7272 0.000610352C47.7237 0.000610352 48.2235 0.50043 48.2235 1.49772V28.4301C48.2235 29.4289 47.7237 29.9272 46.7272 29.9272H43.3075C42.3094 29.9272 41.8104 29.4289 41.8104 28.4301V8.25194L26.1635 23.6845C25.7082 24.1124 25.0238 24.3259 24.1118 24.3259C23.1997 24.3259 22.5153 24.1124 22.0601 23.6845L6.41316 8.25194V28.4301C6.41316 29.4289 5.91334 29.9272 4.91605 29.9272H1.49711C0.499038 29.9272 0 29.4289 0 28.4301V1.49772C0 0.50043 0.499038 0.000610352 1.49711 0.000610352H4.91605C6.0557 0.000610352 6.8684 0.243866 7.35336 0.728041L24.1118 17.2307L40.9132 0.728041C41.3974 0.243866 42.1952 0.000610352 43.3075 0.000610352H46.7272Z" fill="#10E9D8"/>
<path d="M94.9077 28.0877C95.4482 28.5445 95.6563 28.9645 95.528 29.3493C95.3997 29.7341 94.9789 29.9265 94.2663 29.9265H89.5638C88.7949 29.9265 88.1809 29.713 87.7257 29.2851L77.5079 20.3495H60.1926V28.4294C60.1926 29.4283 59.6944 29.9265 58.6971 29.9265H55.2766C54.2793 29.9265 53.781 29.4283 53.781 28.4294V1.49711C53.781 0.49982 54.2793 0 55.2766 0H83.0646C85.2594 0 87.1828 0.293323 88.8364 0.876836C90.4884 1.46035 91.779 2.25192 92.7051 3.24921C93.6312 4.2465 94.3219 5.32985 94.7779 6.49844C95.2339 7.66703 95.4623 8.8927 95.4623 10.1739C95.4623 12.6535 94.6496 14.8412 93.0258 16.7373C91.4012 18.6333 88.9216 19.7941 85.5872 20.2204L94.9077 28.0877ZM60.1934 6.11436V14.5792H83.0654C85.1742 14.5792 86.6994 14.2429 87.6404 13.5741C88.5806 12.9053 89.0507 11.7712 89.0507 10.1747C89.0507 8.66511 88.5877 7.60993 87.6623 7.01077C86.7354 6.41318 85.2039 6.11436 83.0662 6.11436H60.1934Z" fill="#10E9D8"/>
<path d="M101.576 29.9265C100.578 29.9265 100.08 29.4283 100.08 28.4294V1.49711C100.08 0.49982 100.578 0 101.576 0H104.996C105.993 0 106.492 0.49982 106.492 1.49711V28.4294C106.492 29.4283 105.993 29.9265 104.996 29.9265H101.576Z" fill="#10E9D8"/>
<path d="M153.049 0.000762939C154.047 0.000762939 154.546 0.500583 154.546 1.49787V4.61725C154.546 5.61611 154.047 6.11434 153.049 6.11434H136.206V28.4294C136.206 29.4283 135.707 29.9265 134.709 29.9265H131.29C130.291 29.9265 129.793 29.4283 129.793 28.4294V6.11434H112.906C111.908 6.11434 111.41 5.61611 111.41 4.61725V1.49787C111.41 0.500583 111.908 0.000762939 112.906 0.000762939H134.709H153.049Z" fill="#10E9D8"/>
<path d="M197.168 1.49787V5.25942C197.168 5.82963 196.925 6.27236 196.441 6.58523L169.337 23.8129H195.885C196.882 23.8129 197.381 24.3128 197.381 25.3085V28.4294C197.381 29.4283 196.882 29.9265 195.885 29.9265H159.888C158.891 29.9265 158.392 29.4283 158.392 28.4294V24.6679C158.392 24.0687 158.634 23.6276 159.119 23.3421L186.223 6.11434H159.888C158.891 6.11434 158.392 5.61611 158.392 4.61725V1.49787C158.392 0.500583 158.891 0.000762939 159.888 0.000762939H195.671C196.669 0.000762939 197.168 0.499801 197.168 1.49787Z" fill="#10E9D8"/>
</svg>
