<svg width="88" height="23" viewBox="0 0 88 23" fill="none" xmlns="http://www.w3.org/2000/svg">
<path fill-rule="evenodd" clip-rule="evenodd" d="M16.3134 21.7028C14.6696 21.7028 13.3695 21.7028 11.821 21.7028C11.821 16.0533 11.821 10.4552 11.821 4.66255C9.48667 4.66255 7.39711 4.68004 5.30804 4.65818C2.66751 4.63066 1.20777 3.19115 0.977051 0.274411C9.65117 0.274411 18.314 0.274409 26.9772 0.273438C27.2942 2.55016 25.578 4.58014 23.193 4.64183C20.975 4.69898 18.7545 4.65397 16.3134 4.65397C16.3134 10.3353 16.3134 15.9364 16.3134 21.7028Z" fill="#10E9D8"/>
<path fill-rule="evenodd" clip-rule="evenodd" d="M57.2166 17.5852C57.2718 20.2551 55.7275 22.0723 53.4832 22.0926C47.6152 22.1455 41.746 22.1568 35.8783 22.0913C33.1015 22.0602 31.2176 20.0372 31.2101 17.3181C31.2033 14.8113 31.2153 12.3045 31.2273 9.79773C31.2281 9.6355 31.3009 9.47359 31.3706 9.1875C32.7416 9.1875 34.1251 9.1875 35.6943 9.1875C35.6943 11.9647 35.6943 14.6708 35.6943 17.5852C42.9616 17.5852 50.0487 17.5852 57.2166 17.5852Z" fill="#10E9D8"/>
<path fill-rule="evenodd" clip-rule="evenodd" d="M31.28 4.64275C31.28 3.08051 31.28 1.73232 31.28 0.248291C39.8929 0.248291 48.4634 0.248291 57.0441 0.248291C57.6105 2.28377 55.9903 4.58786 53.6796 4.61295C46.2803 4.69358 38.8797 4.64275 31.28 4.64275Z" fill="#10E9D8"/>
<path fill-rule="evenodd" clip-rule="evenodd" d="M85.0916 6.38156H63.8144L59.9047 1.68628H81.1819L85.0916 6.38156Z" fill="#10E9D8"/>
<path fill-rule="evenodd" clip-rule="evenodd" d="M86.1187 14.3152H64.8414L60.9319 9.45801H82.2091L86.1187 14.3152Z" fill="#10E9D8"/>
<path fill-rule="evenodd" clip-rule="evenodd" d="M87.1455 22.2483H65.8682L61.9589 17.3911H83.2359L87.1455 22.2483Z" fill="#10E9D8"/>
</svg>
