<svg width="88" height="22" viewBox="0 0 88 22" fill="none" xmlns="http://www.w3.org/2000/svg">
<path fill-rule="evenodd" clip-rule="evenodd" d="M16.3134 21.4546C14.6696 21.4546 13.3695 21.4546 11.821 21.4546C11.821 15.805 11.821 10.2069 11.821 4.41426C9.48667 4.41426 7.39711 4.43175 5.30804 4.40989C2.66751 4.38236 1.20777 2.94286 0.977051 0.0261199C9.65117 0.0261199 18.314 0.0261179 26.9772 0.0251465C27.2942 2.30187 25.578 4.33185 23.193 4.39354C20.975 4.45069 18.7545 4.40568 16.3134 4.40568C16.3134 10.087 16.3134 15.6881 16.3134 21.4546Z" fill="#4E5D9B"/>
<path fill-rule="evenodd" clip-rule="evenodd" d="M57.2165 17.337C57.2717 20.0068 55.7274 21.824 53.4831 21.8443C47.6151 21.8972 41.7459 21.9085 35.8782 21.843C33.1014 21.8119 31.2174 19.7889 31.21 17.0698C31.2032 14.563 31.2152 12.0562 31.2271 9.54944C31.228 9.38721 31.3008 9.2253 31.3704 8.93921C32.7415 8.93921 34.1249 8.93921 35.6941 8.93921C35.6941 11.7164 35.6941 14.4225 35.6941 17.337C42.9615 17.337 50.0486 17.337 57.2165 17.337Z" fill="#4E5D9B"/>
<path fill-rule="evenodd" clip-rule="evenodd" d="M31.28 4.39446C31.28 2.83222 31.28 1.48403 31.28 0C39.8929 0 48.4634 0 57.0441 0C57.6105 2.03548 55.9903 4.33957 53.6796 4.36466C46.2803 4.44529 38.8797 4.39446 31.28 4.39446Z" fill="#4E5D9B"/>
<path fill-rule="evenodd" clip-rule="evenodd" d="M85.0915 6.13327H63.8143L59.9045 1.43799H81.1818L85.0915 6.13327Z" fill="#4E5D9B"/>
<path fill-rule="evenodd" clip-rule="evenodd" d="M86.1187 14.0669H64.8414L60.9319 9.20972H82.2091L86.1187 14.0669Z" fill="#4E5D9B"/>
<path fill-rule="evenodd" clip-rule="evenodd" d="M87.1453 22H65.8681L61.9587 17.1428H83.2358L87.1453 22Z" fill="#4E5D9B"/>
</svg>
