<svg width="39" height="39" viewBox="0 0 39 39" fill="none" xmlns="http://www.w3.org/2000/svg">
<path d="M7.0127 32.1236V19.7192" stroke="#4E5D9B" stroke-width="3" stroke-linecap="round" stroke-linejoin="round"/>
<path d="M31.8235 32.1246V19.6968" stroke="#4E5D9B" stroke-width="3" stroke-linecap="round" stroke-linejoin="round"/>
<path d="M4.53162 2.35156H34.3048" stroke="#4E5D9B" stroke-width="3" stroke-linecap="round" stroke-linejoin="round"/>
<path d="M28.1019 15.3772C28.1019 16.1394 27.9013 16.8881 27.5202 17.5482C27.1392 18.2082 26.591 18.7564 25.931 19.1375C25.2709 19.5185 24.5222 19.7192 23.76 19.7192C22.9978 19.7192 22.2491 19.5185 21.5891 19.1375C20.929 18.7564 20.3809 18.2082 19.9998 17.5482C19.6187 16.8881 19.4181 16.1394 19.4181 15.3772" stroke="#4E5D9B" stroke-width="3" stroke-linecap="round" stroke-linejoin="round"/>
<path d="M36.7859 15.3772C36.7859 16.1394 36.5853 16.8881 36.2042 17.5482C35.8231 18.2082 35.275 18.7564 34.6149 19.1375C33.9549 19.5185 33.2061 19.7192 32.444 19.7192C31.6818 19.7192 30.9331 19.5185 30.273 19.1375C29.613 18.7564 29.0648 18.2082 28.6837 17.5482C28.3027 16.8881 28.102 16.1394 28.1021 15.3772" stroke="#4E5D9B" stroke-width="3" stroke-linecap="round" stroke-linejoin="round"/>
<path d="M10.7344 15.3772C10.7344 16.1394 10.5338 16.8882 10.1527 17.5483C9.77164 18.2084 9.22351 18.7565 8.56342 19.1376C7.90337 19.5187 7.15463 19.7193 6.39246 19.7193C5.63029 19.7193 4.88156 19.5187 4.2215 19.1376C3.56141 18.7565 3.01328 18.2084 2.63219 17.5483C2.25111 16.8882 2.0505 16.1394 2.05054 15.3772" stroke="#4E5D9B" stroke-width="3" stroke-linecap="round" stroke-linejoin="round"/>
<path d="M19.4182 15.3772C19.4183 16.1394 19.2177 16.8882 18.8366 17.5483C18.4555 18.2084 17.9073 18.7565 17.2473 19.1376C16.5872 19.5187 15.8385 19.7193 15.0763 19.7193C14.3141 19.7193 13.5654 19.5187 12.9053 19.1376C12.2453 18.7565 11.6971 18.2084 11.316 17.5483C10.9349 16.8882 10.7343 16.1394 10.7344 15.3772" stroke="#4E5D9B" stroke-width="3" stroke-linecap="round" stroke-linejoin="round"/>
<path d="M2.05029 15.378L4.53139 2.35181" stroke="#4E5D9B" stroke-width="3"/>
<path d="M34.3047 2.35156L36.7858 15.3773" stroke="#4E5D9B" stroke-width="3"/>
<path d="M28.102 15.3776L26.8615 2.35181" stroke="#4E5D9B" stroke-width="3"/>
<path d="M10.7344 15.3773L11.9749 2.35156" stroke="#4E5D9B" stroke-width="3"/>
<path d="M19.4181 15.3773V2.35156" stroke="#4E5D9B" stroke-width="3"/>
<path d="M7.0127 29.6436H31.8237" stroke="#4E5D9B" stroke-width="3" stroke-linecap="round" stroke-linejoin="round"/>
<path d="M11.9749 37.0872H26.8615" stroke="#4E5D9B" stroke-width="3"/>
<path d="M31.8236 32.1245C31.8236 33.4406 31.3008 34.7027 30.3703 35.6333C29.4397 36.5639 28.1775 37.0867 26.8615 37.0867" stroke="#4E5D9B" stroke-width="3" stroke-linecap="round" stroke-linejoin="round"/>
<path d="M7.0127 32.1245C7.0127 33.4406 7.5355 34.7027 8.46609 35.6333C9.39668 36.5639 10.6588 37.0867 11.9749 37.0867" stroke="#4E5D9B" stroke-width="3" stroke-linecap="round" stroke-linejoin="round"/>
</svg>
