<svg width="54" height="39" viewBox="0 0 54 39" fill="none" xmlns="http://www.w3.org/2000/svg">
<path d="M2.24609 14.7571C2.24609 13.4411 2.7689 12.1789 3.69949 11.2483C4.63008 10.3177 5.89224 9.79492 7.20829 9.79492H46.9059C48.2219 9.79492 49.4841 10.3177 50.4147 11.2483C51.3453 12.1789 51.8681 13.4411 51.8681 14.7571V32.1248C51.8681 33.4409 51.3453 34.703 50.4147 35.6336C49.4841 36.5642 48.2219 37.087 46.9059 37.087H37.309C36.4521 37.087 35.6098 36.8651 34.8641 36.4429C34.1184 36.0208 33.4948 35.4127 33.0539 34.6779L29.1834 28.227C28.9628 27.8602 28.6511 27.5566 28.2785 27.3459C27.9059 27.1352 27.4851 27.0245 27.0571 27.0245C26.629 27.0245 26.2083 27.1352 25.8357 27.3459C25.4631 27.5566 25.1514 27.8602 24.9308 28.227L21.0603 34.6779C20.6194 35.4127 19.9958 36.0208 19.2501 36.4429C18.5044 36.8651 17.6621 37.087 16.8052 37.087H7.20829C5.89224 37.087 4.63008 36.5642 3.69949 35.6336C2.7689 34.703 2.24609 33.4409 2.24609 32.1248V14.7571Z" stroke="#10E9D8" stroke-width="3" stroke-linecap="round" stroke-linejoin="round"/>
<path d="M6.74443 6.7704C7.65049 5.41148 8.87794 4.29718 10.3179 3.52636C11.7578 2.75553 13.3658 2.352 14.999 2.35156H39.1104C40.7441 2.35159 42.3525 2.75493 43.7929 3.52577C45.2333 4.29662 46.4612 5.41113 47.3675 6.7704L49.3871 9.79486H4.72729L6.74443 6.7704V6.7704Z" stroke="#10E9D8" stroke-width="3" stroke-linecap="round" stroke-linejoin="round"/>
</svg>
