<svg width="54" height="39" viewBox="0 0 54 39" fill="none" xmlns="http://www.w3.org/2000/svg">
<path d="M2.24658 14.5091C2.24658 13.193 2.76938 11.9309 3.69998 11.0003C4.63057 10.0697 5.89272 9.54687 7.20878 9.54688H46.9064C48.2224 9.54688 49.4846 10.0697 50.4152 11.0003C51.3458 11.9309 51.8686 13.193 51.8686 14.5091V31.8768C51.8686 33.1928 51.3458 34.455 50.4152 35.3856C49.4846 36.3162 48.2224 36.839 46.9064 36.839H37.3095C36.4526 36.839 35.6103 36.6171 34.8646 36.1949C34.1189 35.7727 33.4953 35.1646 33.0544 34.4298L29.1839 27.979C28.9633 27.6121 28.6516 27.3086 28.279 27.0979C27.9064 26.8872 27.4856 26.7764 27.0576 26.7764C26.6295 26.7764 26.2088 26.8872 25.8362 27.0979C25.4636 27.3086 25.1519 27.6121 24.9313 27.979L21.0608 34.4298C20.6199 35.1646 19.9962 35.7727 19.2506 36.1949C18.5049 36.6171 17.6626 36.839 16.8057 36.839H7.20878C5.89272 36.839 4.63057 36.3162 3.69998 35.3856C2.76938 34.455 2.24658 33.1928 2.24658 31.8768V14.5091Z" stroke="#4E5D9B" stroke-width="3" stroke-linecap="round" stroke-linejoin="round"/>
<path d="M6.74443 6.52235C7.65049 5.16343 8.87794 4.04914 10.3179 3.27831C11.7578 2.50748 13.3658 2.10395 14.999 2.10352H39.1104C40.7441 2.10354 42.3525 2.50688 43.7929 3.27772C45.2333 4.04857 46.4612 5.16308 47.3675 6.52235L49.3871 9.54682H4.72729L6.74443 6.52235V6.52235Z" stroke="#4E5D9B" stroke-width="3" stroke-linecap="round" stroke-linejoin="round"/>
</svg>
