<svg width="40" height="40" viewBox="0 0 40 40" fill="none" xmlns="http://www.w3.org/2000/svg">
<path d="M20.873 36.0425H3.27891C2.98106 36.0425 2.69542 35.9242 2.48481 35.7136C2.2742 35.503 2.15588 35.2174 2.15588 34.9195V3.47483C2.15588 3.17699 2.2742 2.89134 2.48481 2.68073C2.69542 2.47012 2.98106 2.35181 3.27891 2.35181H34.7236C35.0214 2.35181 35.3071 2.47012 35.5177 2.68073C35.7283 2.89134 35.8466 3.17699 35.8466 3.47483V21.0689" stroke="#10E9D8" stroke-width="3" stroke-linecap="round" stroke-linejoin="round"/>
<path d="M32.1034 32.299V37.9141M26.4883 32.299H32.1034H26.4883ZM37.7185 32.299H32.1034H37.7185ZM32.1034 32.299V26.6838V32.299Z" stroke="#10E9D8" stroke-width="3" stroke-linecap="round" stroke-linejoin="round"/>
<path d="M15.0668 12.6703C14.8961 12.5726 14.7028 12.5215 14.5061 12.522C14.3095 12.5225 14.1164 12.5746 13.9462 12.6732C13.7761 12.7717 13.6348 12.9132 13.5364 13.0835C13.4381 13.2538 13.3862 13.4469 13.386 13.6436V24.7484C13.3859 24.9452 13.4376 25.1386 13.5357 25.3091C13.6339 25.4797 13.7752 25.6215 13.9454 25.7202C14.1157 25.819 14.3089 25.8713 14.5057 25.8719C14.7025 25.8724 14.896 25.8213 15.0668 25.7236L24.7809 20.1721C24.9529 20.0739 25.0958 19.9319 25.1952 19.7607C25.2946 19.5894 25.347 19.3949 25.347 19.1969C25.347 18.9989 25.2946 18.8044 25.1952 18.6332C25.0958 18.4619 24.9529 18.32 24.7809 18.2218L15.0668 12.6703V12.6703Z" stroke="#10E9D8" stroke-width="3" stroke-linecap="round" stroke-linejoin="round"/>
</svg>
