<svg width="40" height="40" viewBox="0 0 40 40" fill="none" xmlns="http://www.w3.org/2000/svg">
<path d="M20.8731 35.794H3.27903C2.98119 35.794 2.69554 35.6757 2.48493 35.4651C2.27432 35.2545 2.15601 34.9688 2.15601 34.671V3.2263C2.15601 2.92845 2.27432 2.64281 2.48493 2.4322C2.69554 2.22159 2.98119 2.10327 3.27903 2.10327H34.7237C35.0216 2.10327 35.3072 2.22159 35.5178 2.4322C35.7284 2.64281 35.8467 2.92845 35.8467 3.2263V20.8203" stroke="#4E5D9B" stroke-width="3" stroke-linecap="round" stroke-linejoin="round"/>
<path d="M32.1034 32.0507V37.6658M26.4883 32.0507H32.1034H26.4883ZM37.7185 32.0507H32.1034H37.7185ZM32.1034 32.0507V26.4355V32.0507Z" stroke="#4E5D9B" stroke-width="3" stroke-linecap="round" stroke-linejoin="round"/>
<path d="M15.067 12.4225C14.8963 12.3248 14.703 12.2737 14.5064 12.2742C14.3097 12.2747 14.1167 12.3268 13.9465 12.4253C13.7763 12.5239 13.635 12.6654 13.5367 12.8357C13.4384 13.006 13.3865 13.1991 13.3862 13.3958V24.5006C13.3862 24.6974 13.4378 24.8908 13.536 25.0613C13.6342 25.2319 13.7755 25.3737 13.9457 25.4724C14.1159 25.5712 14.3091 25.6235 14.5059 25.6241C14.7027 25.6246 14.8962 25.5735 15.067 25.4758L24.7812 19.9243C24.9531 19.8261 25.096 19.6841 25.1954 19.5129C25.2949 19.3416 25.3472 19.1471 25.3472 18.9491C25.3472 18.7511 25.2949 18.5566 25.1954 18.3854C25.096 18.2141 24.9531 18.0722 24.7812 17.974L15.067 12.4225V12.4225Z" stroke="#4E5D9B" stroke-width="3" stroke-linecap="round" stroke-linejoin="round"/>
</svg>
