<svg width="42" height="39" viewBox="0 0 42 39" fill="none" xmlns="http://www.w3.org/2000/svg">
<path d="M18.64 37.087C9.52765 37.087 2.14065 29.3112 2.14065 19.7193C2.14065 10.1273 9.52765 2.35156 18.64 2.35156C27.7523 2.35156 35.1393 10.1273 35.1393 19.7193C35.1393 29.3112 27.7523 37.087 18.64 37.087Z" stroke="#10E9D8" stroke-width="3" stroke-linecap="round" stroke-linejoin="round"/>
<path d="M22.982 14.1616C21.8766 13.2653 20.4974 12.7749 19.0743 12.7722C15.4774 12.7722 12.5614 15.881 12.5614 19.7193C12.5614 23.5576 15.4774 26.6664 19.0743 26.6664C20.5401 26.6664 21.8931 26.1488 22.982 25.277" stroke="#10E9D8" stroke-width="3" stroke-linecap="round" stroke-linejoin="round"/>
<path d="M17.7716 2.35156C25.297 2.35156 40.3496 4.08833 40.3496 19.7193C40.3496 35.3502 25.297 37.087 17.7716 37.087" stroke="#10E9D8" stroke-width="3"/>
</svg>
