<svg width="42" height="39" viewBox="0 0 42 39" fill="none" xmlns="http://www.w3.org/2000/svg">
<path d="M18.6403 36.8389C9.52801 36.8389 2.14102 29.0631 2.14102 19.4712C2.14102 9.8793 9.52801 2.10352 18.6403 2.10352C27.7527 2.10352 35.1396 9.8793 35.1396 19.4712C35.1396 29.0631 27.7527 36.8389 18.6403 36.8389Z" stroke="#4E5D9B" stroke-width="3" stroke-linecap="round" stroke-linejoin="round"/>
<path d="M22.9821 13.9138C21.8768 13.0175 20.4975 12.5271 19.0744 12.5244C15.4776 12.5244 12.5615 15.6332 12.5615 19.4715C12.5615 23.3098 15.4776 26.4186 19.0744 26.4186C20.5402 26.4186 21.8932 25.901 22.9821 25.0292" stroke="#4E5D9B" stroke-width="3" stroke-linecap="round" stroke-linejoin="round"/>
<path d="M17.7717 2.10352C25.2972 2.10352 40.3497 3.84029 40.3497 19.4712C40.3497 35.1021 25.2972 36.8389 17.7717 36.8389" stroke="#4E5D9B" stroke-width="3"/>
</svg>
