<svg width="9" height="15" viewBox="0 0 9 15" fill="none" xmlns="http://www.w3.org/2000/svg">
<path d="M0.445293 7.17913C0.445364 7.29321 0.467921 7.40616 0.511676 7.51152C0.555431 7.61687 0.619525 7.71257 0.700293 7.79313L6.81429 13.9021C6.89441 13.9835 6.9898 14.0483 7.09499 14.0927C7.20018 14.1372 7.3131 14.1604 7.42729 14.1611C7.65834 14.1596 7.87948 14.0671 8.04286 13.9037C8.20624 13.7403 8.29872 13.5192 8.30029 13.2881L8.30029 1.07013C8.29872 0.839085 8.20624 0.617946 8.04286 0.454566C7.87948 0.291186 7.65834 0.198705 7.42729 0.197133C7.31293 0.197727 7.19982 0.220915 7.09445 0.265363C6.98908 0.309811 6.89353 0.374642 6.81329 0.456133L0.700293 6.56113C0.618803 6.64137 0.55397 6.73692 0.509522 6.84229C0.465075 6.94766 0.441887 7.06077 0.441293 7.17513L0.445293 7.17913Z" fill="#00FFFF"/>
</svg>
