<svg width="9" height="15" viewBox="0 0 9 15" fill="none" xmlns="http://www.w3.org/2000/svg">
<path d="M8.11721 7.80801C8.11717 7.57554 8.02556 7.35243 7.86221 7.18701L1.74821 1.00101C1.66854 0.918832 1.57331 0.853339 1.46806 0.808356C1.36281 0.763373 1.24966 0.7398 1.13521 0.739014C0.902667 0.741907 0.680634 0.836319 0.517224 1.00179C0.353813 1.16726 0.262189 1.39046 0.262207 1.62301V13.994C0.262189 14.2266 0.353813 14.4498 0.517224 14.6152C0.680634 14.7807 0.902667 14.8751 1.13521 14.878C1.24983 14.8774 1.36317 14.8539 1.4686 14.8089C1.57403 14.7639 1.66942 14.6983 1.74921 14.616L7.86221 8.42901C8.02702 8.26425 8.12011 8.04106 8.12121 7.80801H8.11721Z" fill="#00FFFF"/>
</svg>
