<svg width="55" height="32" viewBox="0 0 55 32" fill="none" xmlns="http://www.w3.org/2000/svg">
<path d="M30.9052 19.5918C30.9052 16.1959 31.5233 13.2789 32.7595 10.8408C33.9957 8.31565 35.5925 6.26939 37.5498 4.70204C39.5071 3.04762 41.722 1.87211 44.1944 1.17551C46.7699 0.391837 49.2938 0 51.7662 0V4.57143C49.0878 4.57143 46.5638 5.3551 44.1944 6.92245C41.9281 8.40272 40.5888 10.449 40.1768 13.0612C40.4858 12.9742 40.8464 12.8871 41.2584 12.8C41.5675 12.7129 41.9281 12.6259 42.3401 12.5388C42.8552 12.4517 43.4218 12.4082 44.0399 12.4082C47.1304 12.4082 49.7059 13.4095 51.7662 15.4122C53.8266 17.3279 54.8567 19.5918 54.8567 22.2041C54.8567 24.8163 53.775 27.1238 51.6117 29.1265C49.5513 31.0422 46.7699 32 43.2673 32C39.3526 32 36.3136 30.781 34.1502 28.3429C31.9869 25.8177 30.9052 22.9007 30.9052 19.5918ZM0 19.5918C0 16.1959 0.618104 13.2789 1.85431 10.8408C3.09052 8.31565 4.68729 6.26939 6.64462 4.70204C8.60195 3.04762 10.8168 1.87211 13.2892 1.17551C15.8647 0.391837 18.3886 0 20.861 0V4.57143C18.1826 4.57143 15.6586 5.3551 13.2892 6.92245C11.0229 8.40272 9.68363 10.449 9.27156 13.0612C9.58061 12.9742 9.94117 12.8871 10.3532 12.8C10.6623 12.7129 11.0229 12.6259 11.4349 12.5388C11.95 12.4517 12.5166 12.4082 13.1347 12.4082C16.2252 12.4082 18.8007 13.4095 20.861 15.4122C22.9214 17.3279 23.9515 19.5918 23.9515 22.2041C23.9515 24.8163 22.8698 27.1238 20.7065 29.1265C18.6461 31.0422 15.8647 32 12.3621 32C8.44742 32 5.40841 30.781 3.24505 28.3429C1.08168 25.8177 0 22.9007 0 19.5918Z" fill="#10E9D8"/>
</svg>
