<svg width="112" height="77" viewBox="0 0 112 77" fill="none" xmlns="http://www.w3.org/2000/svg">
<path d="M63.0986 47.1429C63.0986 38.9714 64.3606 31.9524 66.8845 26.0857C69.4084 20.0095 72.6685 15.0857 76.6648 11.3143C80.661 7.33334 85.1831 4.50477 90.231 2.82857C95.4892 0.942858 100.642 0 105.69 0V11C100.222 11 95.0685 12.8857 90.231 16.6571C85.6037 20.219 82.8695 25.1429 82.0282 31.4286C82.6591 31.2191 83.3953 31.0095 84.2366 30.8C84.8676 30.5905 85.6038 30.381 86.4451 30.1714C87.4967 29.9619 88.6535 29.8571 89.9155 29.8571C96.2253 29.8571 101.484 32.2667 105.69 37.0857C109.897 41.6952 112 47.1429 112 53.4286C112 59.7143 109.792 65.2667 105.375 70.0857C101.168 74.6952 95.4892 77 88.338 77C80.3455 77 74.1408 74.0667 69.7239 68.2C65.307 62.1238 63.0986 55.1048 63.0986 47.1429ZM0 47.1429C0 38.9714 1.26197 31.9524 3.78591 26.0857C6.30986 20.0095 9.56995 15.0857 13.5662 11.3143C17.5624 7.33334 22.0845 4.50477 27.1324 2.82857C32.3906 0.942858 37.5437 0 42.5915 0V11C37.123 11 31.97 12.8857 27.1324 16.6571C22.5052 20.219 19.7709 25.1429 18.9296 31.4286C19.5606 31.2191 20.2967 31.0095 21.138 30.8C21.769 30.5905 22.5052 30.381 23.3465 30.1714C24.3981 29.9619 25.5549 29.8571 26.8169 29.8571C33.1268 29.8571 38.385 32.2667 42.5915 37.0857C46.7981 41.6952 48.9014 47.1429 48.9014 53.4286C48.9014 59.7143 46.693 65.2667 42.2761 70.0857C38.0695 74.6952 32.3906 77 25.2394 77C17.2469 77 11.0423 74.0667 6.62535 68.2C2.20845 62.1238 0 55.1048 0 47.1429Z" fill="#2B3258"/>
</svg>
