<svg width="38" height="38" viewBox="0 0 38 38" fill="none" xmlns="http://www.w3.org/2000/svg">
<circle cx="19.4804" cy="18.5195" r="18.5195" fill="#00FFFF" fill-opacity="0.8"/>
<path d="M25.4546 18.2556C25.4505 17.8066 25.2696 17.3773 24.9511 17.0607L21.2899 13.391C21.13 13.232 20.9137 13.1428 20.6882 13.1428C20.4628 13.1428 20.2465 13.232 20.0866 13.391C20.0066 13.4703 19.9431 13.5647 19.8997 13.6687C19.8564 13.7727 19.8341 13.8843 19.8341 13.9969C19.8341 14.1096 19.8564 14.2211 19.8997 14.3251C19.9431 14.4291 20.0066 14.5235 20.0866 14.6029L22.8943 17.4021H14.36C14.1337 17.4021 13.9166 17.492 13.7566 17.6521C13.5965 17.8121 13.5066 18.0292 13.5066 18.2556C13.5066 18.4819 13.5965 18.699 13.7566 18.859C13.9166 19.0191 14.1337 19.109 14.36 19.109H22.8943L20.0866 21.9168C19.9259 22.0763 19.8351 22.2932 19.8343 22.5197C19.8335 22.7462 19.9227 22.9637 20.0823 23.1244C20.2419 23.2851 20.4587 23.3758 20.6852 23.3766C20.9117 23.3774 21.1292 23.2882 21.2899 23.1286L24.9511 19.4589C25.2717 19.1403 25.4527 18.7075 25.4546 18.2556V18.2556Z" fill="white"/>
</svg>
