<svg width="52" height="52" viewBox="0 0 52 52" fill="none" xmlns="http://www.w3.org/2000/svg">
<path d="M26 0C20.8577 0 15.8309 1.52487 11.5552 4.38179C7.27951 7.2387 3.94702 11.2993 1.97914 16.0502C0.0112654 20.8011 -0.503621 26.0288 0.499594 31.0723C1.50281 36.1158 3.97907 40.7486 7.61523 44.3848C11.2514 48.0209 15.8842 50.4972 20.9277 51.5004C25.9712 52.5036 31.1989 51.9887 35.9498 50.0209C40.7007 48.053 44.7613 44.7205 47.6182 40.4448C50.4751 36.1691 52 31.1423 52 26C52 22.5856 51.3275 19.2047 50.0209 16.0502C48.7142 12.8958 46.7991 10.0295 44.3848 7.61522C41.9705 5.2009 39.1042 3.28575 35.9498 1.97913C32.7953 0.67251 29.4144 0 26 0ZM26 46.8C21.8862 46.8 17.8647 45.5801 14.4441 43.2946C11.0236 41.009 8.35762 37.7605 6.78332 33.9598C5.20901 30.1591 4.7971 25.9769 5.59968 21.9421C6.40225 17.9073 8.38326 14.2011 11.2922 11.2922C14.2011 8.38324 17.9073 6.40224 21.9421 5.59967C25.9769 4.79709 30.1591 5.209 33.9598 6.7833C37.7605 8.35761 41.009 11.0236 43.2946 14.4441C45.5801 17.8647 46.8 21.8861 46.8 26C46.8 31.5165 44.6086 36.8071 40.7078 40.7078C36.8071 44.6086 31.5165 46.8 26 46.8ZM36.4 26C36.4 26.6896 36.1261 27.3509 35.6385 27.8385C35.1509 28.3261 34.4896 28.6 33.8 28.6H28.6V33.8C28.6 34.4896 28.3261 35.1509 27.8385 35.6385C27.3509 36.1261 26.6896 36.4 26 36.4C25.3104 36.4 24.6491 36.1261 24.1615 35.6385C23.6739 35.1509 23.4 34.4896 23.4 33.8V28.6H18.2C17.5104 28.6 16.8491 28.3261 16.3615 27.8385C15.8739 27.3509 15.6 26.6896 15.6 26C15.6 25.3104 15.8739 24.6491 16.3615 24.1615C16.8491 23.6739 17.5104 23.4 18.2 23.4H23.4V18.2C23.4 17.5104 23.6739 16.8491 24.1615 16.3615C24.6491 15.8739 25.3104 15.6 26 15.6C26.6896 15.6 27.3509 15.8739 27.8385 16.3615C28.3261 16.8491 28.6 17.5104 28.6 18.2V23.4H33.8C34.4896 23.4 35.1509 23.6739 35.6385 24.1615C36.1261 24.6491 36.4 25.3104 36.4 26Z" fill="#10E9D8"/>
</svg>
