<svg width="35" height="29" viewBox="0 0 35 29" fill="none" xmlns="http://www.w3.org/2000/svg">
<path d="M33.5551 1.0151C32.1381 2.02932 30.5691 2.80503 28.9086 3.31237C28.0174 2.27261 26.833 1.53565 25.5155 1.20117C24.1981 0.866692 22.8112 0.950828 21.5424 1.4422C20.2736 1.93357 19.1842 2.80847 18.4214 3.94858C17.6586 5.08868 17.2594 6.43897 17.2776 7.81683V9.31831C14.677 9.38673 12.1002 8.80152 9.77658 7.6148C7.45293 6.42807 5.4546 4.67667 3.95956 2.51658C3.21967 2.51658 -1.95956 16.0299 11.3584 22.0359C8.31089 24.1349 4.68044 25.1874 1 25.0389C14.318 32.5463 30.5956 25.0389 30.5956 7.77178C30.5942 7.35355 30.5546 6.93635 30.4772 6.52555C31.9875 5.01429 33.0532 3.10624 33.5551 1.0151Z" stroke="#10E9D8" stroke-width="2" stroke-linecap="round" stroke-linejoin="round"/>
</svg>
