<svg width="61" height="27" viewBox="0 0 61 27" fill="none" xmlns="http://www.w3.org/2000/svg">
<path fill-rule="evenodd" clip-rule="evenodd" d="M0.929264 13.7555C1.03302 13.9741 1.18505 14.1726 1.3766 14.3394L14.497 26.2875C14.8818 26.6254 15.4037 26.8152 15.948 26.8152C16.4922 26.8152 17.0141 26.6254 17.399 26.2875C17.7838 25.9496 18 25.4913 18 25.0134C18 24.5356 17.7838 24.0773 17.399 23.7394L7.82791 15L59 15C60.1046 15 61 14.1046 61 13C61 11.8954 60.1046 11 59 11L8.12609 11L17.399 3.07576C17.7838 2.73787 18 2.27959 18 1.80174C18 1.32389 17.7838 0.865609 17.399 0.527718C17.0141 0.189826 16.4922 0 15.948 0C15.4037 0 14.8818 0.189826 14.497 0.527718L1.3766 11.7914C1.18505 11.9582 1.03302 12.1566 0.929264 12.3753C0.825512 12.594 0.772091 12.8285 0.772091 13.0654C0.772091 13.3023 0.825512 13.5368 0.929264 13.7555Z" fill="#10E9D8"/>
</svg>
