<svg width="61" height="27" viewBox="0 0 61 27" fill="none" xmlns="http://www.w3.org/2000/svg">
<path fill-rule="evenodd" clip-rule="evenodd" d="M60.0707 13.7555C59.967 13.9741 59.8149 14.1726 59.6234 14.3394L46.503 26.2875C46.1182 26.6254 45.5963 26.8152 45.052 26.8152C44.5078 26.8152 43.9859 26.6254 43.601 26.2875C43.2162 25.9496 43 25.4913 43 25.0134C43 24.5356 43.2162 24.0773 43.601 23.7394L53.1721 15L2 15C0.89543 15 0 14.1046 0 13C0 11.8954 0.89543 11 2 11L52.8739 11L43.601 3.07576C43.2162 2.73787 43 2.27959 43 1.80174C43 1.32389 43.2162 0.865609 43.601 0.527718C43.9859 0.189826 44.5078 0 45.052 0C45.5963 0 46.1182 0.189826 46.503 0.527718L59.6234 11.7914C59.8149 11.9582 59.967 12.1566 60.0707 12.3753C60.1745 12.594 60.2279 12.8285 60.2279 13.0654C60.2279 13.3023 60.1745 13.5368 60.0707 13.7555Z" fill="#10E9D8"/>
</svg>
