<svg width="42" height="30" viewBox="0 0 42 30" fill="none" xmlns="http://www.w3.org/2000/svg">
<path d="M39.2584 5.29818C39.0474 4.45526 38.6177 3.68294 38.0127 3.05923C37.4077 2.43552 36.6488 1.98252 35.8127 1.74597C32.7578 1 20.5382 1 20.5382 1C20.5382 1 8.31858 1 5.26367 1.81701C4.42757 2.05356 3.66869 2.50657 3.06369 3.13027C2.4587 3.75398 2.02901 4.5263 1.81802 5.36923C1.25893 8.46952 0.985449 11.6146 1.00102 14.7648C0.981086 17.9388 1.25459 21.1079 1.81802 24.2315C2.05062 25.0482 2.48994 25.7912 3.09353 26.3885C3.69711 26.9859 4.44457 27.4175 5.26367 27.6416C8.31858 28.4586 20.5382 28.4586 20.5382 28.4586C20.5382 28.4586 32.7578 28.4586 35.8127 27.6416C36.6488 27.4051 37.4077 26.9521 38.0127 26.3284C38.6177 25.7046 39.0474 24.9323 39.2584 24.0894C39.8132 21.0125 40.0866 17.8914 40.0754 14.7648C40.0953 11.5909 39.8218 8.42182 39.2584 5.29818V5.29818Z" stroke="#10E9D8" stroke-width="2" stroke-linecap="round" stroke-linejoin="round"/>
<path d="M16.5418 20.5734L26.7544 14.7655L16.5418 8.95764V20.5734Z" stroke="#10E9D8" stroke-width="2" stroke-linecap="round" stroke-linejoin="round"/>
</svg>
